<?xml version="1.0" encoding="UTF-8"?>
<svg id="Layer_1" data-name="Layer 1" xmlns="http://www.w3.org/2000/svg" viewBox="0 0 14.52 15">
  <ellipse cx="7.26" cy="7.5" rx="7.26" ry="7.5" fill="#231f20"/>
  <g>
    <path d="m8.04,4.92c-.02.31.25.73.58.92.53.3,1.09.56,1.09-.01,0-.53-.58-.87-1.1-1.14-.31-.16-.56-.06-.57.23h0Zm-.1,2.32c-.01.31.25.73.58.92.6.35,1.27.69,1.26.03.01-.59-.67-.96-1.26-1.26-.31-.16-.56-.06-.57.23v.08Zm-1.84.11c.13-1.43.18-3.04.19-4.49,0-.32.27-.42.61-.23.87.49,1.71.91,2.55,1.38.75.43,1.21.66,1.72,1.36.54.85.49,1.73,0,2-.2.11-.22.43,0,.76.84,1.21.39,2.69-.98,2.04-1-.46-2.35-1.24-3.5-1.88-.35-.19-.62-.63-.59-.95Z" fill="#231f20"/>
    <path d="m7.75,5.11c-.02.31.25.73.58.92.53.3,1.09.56,1.09-.01,0-.53-.58-.87-1.1-1.14-.31-.16-.56-.06-.57.23h0Zm-.1,2.32c-.01.31.25.73.58.92.6.35,1.26.69,1.26.03,0-.59-.67-.96-1.26-1.26-.31-.16-.56-.06-.57.23v.08Zm-1.84.11c.13-1.43.18-3.04.19-4.49,0-.32.27-.42.61-.23.87.49,1.71.91,2.55,1.38.76.42,1.23.64,1.72,1.36.57.83.49,1.73,0,2-.2.11-.22.43,0,.76.84,1.21.4,2.68-.98,2.04-1-.46-2.35-1.24-3.5-1.88-.35-.19-.62-.63-.59-.95Z" fill="#3d3d3e"/>
    <path d="m7.47,5.31c-.02.31.25.73.58.92.53.3,1.09.56,1.09-.01,0-.53-.58-.87-1.1-1.14-.31-.16-.56-.06-.57.23h0Zm-.1,2.32c-.01.31.25.73.58.92.6.35,1.26.69,1.26.03,0-.59-.67-.96-1.26-1.26-.31-.16-.56-.06-.57.23v.08Zm-1.84.11c.13-1.43.18-3.04.19-4.49,0-.32.27-.42.61-.23.87.49,1.71.91,2.55,1.38.76.42,1.23.64,1.72,1.36.57.83.49,1.73,0,2-.2.11-.22.43,0,.76.84,1.21.4,2.68-.98,2.04-1-.46-2.35-1.24-3.5-1.88-.35-.19-.62-.63-.59-.95Z" fill="#525255"/>
    <path d="m7.18,5.5c-.02.31.25.73.58.92.53.3,1.09.56,1.09-.01,0-.53-.58-.87-1.1-1.14-.31-.16-.56-.06-.57.23h0Zm-.1,2.32c-.01.31.25.73.58.92.6.35,1.26.69,1.26.03,0-.59-.67-.96-1.26-1.26-.31-.16-.56-.06-.57.23v.08Zm-1.84.11c.13-1.43.18-3.04.19-4.49,0-.32.27-.42.61-.23.87.49,1.71.91,2.55,1.38.76.42,1.23.64,1.72,1.36.57.83.49,1.73,0,2-.2.11-.22.43,0,.76.84,1.21.4,2.68-.98,2.04-1-.46-2.35-1.24-3.5-1.88-.35-.19-.62-.63-.59-.95Z" fill="#656668"/>
    <path d="m6.89,5.69c-.02.31.25.73.58.92.53.3,1.09.56,1.09-.01,0-.53-.58-.87-1.1-1.14-.31-.16-.56-.06-.57.23h0Zm-.1,2.32c-.01.31.25.73.58.92.6.35,1.26.69,1.26.03,0-.59-.67-.96-1.26-1.26-.31-.16-.56-.06-.57.23v.08Zm-1.84.11c.13-1.43.18-3.04.19-4.49,0-.32.27-.42.61-.23.87.49,1.71.91,2.55,1.38.76.42,1.23.64,1.72,1.36.57.83.49,1.73,0,2-.2.11-.22.43,0,.76.84,1.21.4,2.68-.98,2.04-1-.46-2.35-1.24-3.5-1.88-.35-.19-.62-.63-.59-.95Z" fill="#76787a"/>
    <path d="m6.6,5.89c-.02.31.25.73.58.92.53.3,1.09.56,1.09-.01,0-.53-.58-.87-1.1-1.14-.31-.16-.56-.06-.57.23h0Zm-.1,2.32c-.01.31.25.73.58.92.6.35,1.26.69,1.26.03,0-.59-.67-.96-1.26-1.26-.31-.16-.56-.06-.57.23v.08Zm-1.84.11c.13-1.43.18-3.04.19-4.49,0-.32.27-.42.61-.23.87.49,1.71.91,2.55,1.38.76.42,1.23.64,1.72,1.36.57.83.49,1.73,0,2-.2.11-.22.43,0,.76.84,1.21.4,2.68-.98,2.04-1-.46-2.35-1.24-3.5-1.88-.35-.19-.62-.63-.59-.95Z" fill="#86888b"/>
    <path d="m6.31,6.08c-.02.31.25.73.58.92.53.3,1.09.56,1.09-.01,0-.53-.58-.87-1.1-1.14-.31-.16-.56-.06-.57.23h0Zm-.1,2.32c-.01.31.25.73.58.92.6.35,1.26.69,1.26.03,0-.59-.67-.96-1.26-1.26-.31-.16-.56-.06-.57.23v.08Zm-1.84.11c.13-1.43.18-3.04.19-4.49,0-.32.27-.42.61-.23.87.49,1.71.91,2.55,1.38.76.42,1.23.64,1.72,1.36.57.83.49,1.73,0,2-.2.11-.22.43,0,.76.84,1.21.4,2.68-.98,2.04-1-.46-2.35-1.24-3.5-1.88-.35-.19-.62-.63-.59-.95Z" fill="#97999c"/>
    <path d="m6.02,6.27c-.02.31.25.73.58.92.53.3,1.09.56,1.09-.01,0-.53-.58-.87-1.1-1.14-.31-.16-.56-.06-.57.23h0Zm-.1,2.32c-.01.31.25.73.58.92.6.35,1.26.69,1.26.03,0-.59-.67-.96-1.26-1.26-.31-.16-.56-.06-.57.23v.08Zm-1.84.11c.13-1.43.18-3.04.19-4.49,0-.32.27-.42.61-.23.87.49,1.71.91,2.55,1.38.76.42,1.23.64,1.72,1.36.57.83.49,1.73,0,2-.2.11-.22.43,0,.76.84,1.21.4,2.68-.98,2.04-1-.46-2.35-1.24-3.5-1.88-.35-.19-.62-.63-.59-.95Z" fill="#a8aaad"/>
    <path d="m5.73,6.47c-.02.31.25.73.58.92.53.3,1.09.56,1.09-.01,0-.53-.58-.87-1.1-1.14-.31-.16-.56-.06-.57.23h0Zm-.1,2.32c-.01.31.25.73.58.92.6.35,1.26.69,1.26.03,0-.59-.67-.96-1.26-1.26-.31-.16-.56-.06-.57.23v.08Zm-1.84.11c.13-1.43.18-3.04.19-4.49,0-.32.27-.42.61-.23.87.49,1.71.91,2.55,1.38.76.42,1.23.64,1.72,1.36.57.83.49,1.73,0,2-.2.11-.22.43,0,.76.84,1.21.4,2.68-.98,2.04-1-.46-2.35-1.24-3.5-1.88-.35-.19-.62-.63-.59-.95Z" fill="#babcbe"/>
    <path d="m5.44,6.66c-.02.31.25.73.58.92.53.3,1.09.56,1.09-.01,0-.53-.58-.87-1.1-1.14-.31-.16-.56-.06-.57.23h0Zm-.1,2.32c-.01.31.25.73.58.92.6.35,1.26.69,1.26.03,0-.59-.67-.96-1.26-1.26-.31-.16-.56-.06-.57.23v.08Zm-1.84.11c.13-1.43.18-3.04.19-4.49,0-.32.27-.42.61-.23.87.49,1.71.91,2.55,1.38.76.42,1.23.64,1.72,1.36.57.83.49,1.73,0,2-.2.11-.22.43,0,.76.84,1.21.4,2.68-.98,2.04-1-.46-2.35-1.24-3.5-1.88-.35-.19-.62-.63-.59-.95Z" fill="#ccced0"/>
    <path d="m5.16,6.85c-.02.31.25.73.58.92.53.3,1.09.56,1.09-.01,0-.53-.58-.87-1.1-1.14-.31-.16-.56-.06-.57.23h0Zm-.1,2.32c-.01.31.25.73.58.92.6.35,1.26.69,1.26.03,0-.59-.67-.96-1.26-1.26-.31-.16-.56-.06-.57.23v.08Zm-1.84.11c.13-1.43.18-3.04.19-4.49,0-.32.27-.42.61-.23.87.49,1.71.91,2.55,1.38.76.42,1.23.64,1.72,1.36.57.83.49,1.73,0,2-.2.11-.22.43,0,.76.84,1.21.4,2.68-.98,2.04-1-.46-2.35-1.24-3.5-1.88-.35-.19-.62-.63-.59-.95Z" fill="#dfe0e1"/>
    <path d="m4.87,7.04c-.02.31.25.73.58.92.53.3,1.09.56,1.09-.01,0-.53-.58-.87-1.1-1.14-.31-.16-.56-.06-.57.23h0Zm-.1,2.32c-.01.31.25.73.58.92.6.35,1.27.69,1.26.03.01-.59-.67-.96-1.26-1.26-.31-.16-.56-.06-.57.23v.08Zm-1.84.11c.13-1.43.18-3.04.19-4.49,0-.32.27-.42.61-.23.87.49,1.71.91,2.55,1.38.75.43,1.21.66,1.72,1.36.54.85.49,1.73,0,2-.2.11-.22.43,0,.76.84,1.21.39,2.69-.98,2.04-1-.46-2.35-1.24-3.5-1.88-.35-.19-.62-.63-.59-.95Z" fill="#f1f2f2"/>
  </g>
</svg>