<?xml version="1.0" encoding="UTF-8"?>
<svg id="Layer_1" data-name="Layer 1" xmlns="http://www.w3.org/2000/svg" viewBox="0 0 14.52 15">
  <ellipse cx="7.26" cy="7.5" rx="7.26" ry="7.5" fill="#231f20"/>
  <path d="m3.62,10.65c.17-2.07.24-4.33.25-6.34,0-.44.36-.78.8-.78,1.15,0,2.26-.05,3.38-.05,1,.02,1.6-.02,2.27.56.71.76.64,2.02,0,2.77-.27.31-.29.77.01,1.05,1.12,1.03.52,3.41-1.3,3.56-1.32.13-3.11.09-4.64.09-.46,0-.82-.39-.78-.86Zm2.44-1.56c-.02.44.33.81.77.83.8.02,1.68-.02,1.67-.92.02-.82-.89-.81-1.67-.78-.41.02-.74.35-.76.76v.12Zm.13-3.28c-.02.44.33.82.77.83.71.01,1.44-.06,1.45-.86,0-.73-.77-.75-1.46-.73-.41.01-.74.34-.76.75h0Z" fill="#fff"/>
</svg>